<svg width="10" height="10" viewBox="0 0 10 10" fill="none" xmlns="http://www.w3.org/2000/svg">
<path fill-rule="evenodd" clip-rule="evenodd" d="M9.37232 1.25H0.627783C0.284248 1.25 0.00317383 1.53125 0.00317383 1.875V8.125C0.00317383 8.46875 0.284248 8.75 0.627783 8.75H9.37232C9.71585 8.75 9.99693 8.46875 9.99693 8.125V1.875C9.99693 1.53125 9.71585 1.25 9.37232 1.25ZM7.49848 4.375C7.84201 4.375 8.12309 4.09375 8.12309 3.75C8.12309 3.40625 7.84201 3.125 7.49848 3.125C7.15494 3.125 6.87387 3.40625 6.87387 3.75C6.87387 4.09375 7.15494 4.375 7.49848 4.375ZM5.62465 5L8.7477 6.875V2.5H1.25238V6.875L3.12621 3.75L5.00004 6.25L5.62465 5Z" fill="black"/>
<mask id="mask0" mask-type="alpha" maskUnits="userSpaceOnUse" x="0" y="1" width="10" height="8">
<path fill-rule="evenodd" clip-rule="evenodd" d="M9.37232 1.25H0.627783C0.284248 1.25 0.00317383 1.53125 0.00317383 1.875V8.125C0.00317383 8.46875 0.284248 8.75 0.627783 8.75H9.37232C9.71585 8.75 9.99693 8.46875 9.99693 8.125V1.875C9.99693 1.53125 9.71585 1.25 9.37232 1.25ZM7.49848 4.375C7.84201 4.375 8.12309 4.09375 8.12309 3.75C8.12309 3.40625 7.84201 3.125 7.49848 3.125C7.15494 3.125 6.87387 3.40625 6.87387 3.75C6.87387 4.09375 7.15494 4.375 7.49848 4.375ZM5.62465 5L8.7477 6.875V2.5H1.25238V6.875L3.12621 3.75L5.00004 6.25L5.62465 5Z" fill="white"/>
</mask>
<g mask="url(#mask0)">
<rect width="10" height="10" fill="#1070CA"/>
</g>
</svg>
